# xmcd
#
# Track frame offsets: 
#        150
#        20926
#        39987
#        59048
#        82700
#        115752
#        132840
#        146574
#        158641
#        168704
#        187232
#        204293
#        218833
#        234775
#        254493
#        269056
#        288858
#        300790
#
# Disc length: 4250 seconds
#
# Revision: 0
# Processed by: cddbd v1.5.1PL0 Copyright (c) Steve Scherf et al.
# Submitted via: ExactAudioCopy v0.95a5
#
DISCID=00109812
DTITLE=Nanci Griffith - MCA Years: A Retrospective
DYEAR=1993
DGENRE=Country
TTITLE0=Trouble In The Fields
TTITLE1=From A Distance
TTITLE2=I Don't Want To Talk About Love
TTITLE3=Deadwood, South Dakota
TTITLE4=Love At The Five And Dime
TTITLE5=Listen To The Radio
TTITLE6=Gulf Coast Highway
TTITLE7=I Wish It Would Rain
TTITLE8=Ford Econoline
TTITLE9=So Long Ago
TTITLE10=If Wishes Were Changes
TTITLE11=The Wing And The Wheel
TTITLE12=Late Night Grande Hotel
TTITLE13=It's Just Another Morning Here
TTITLE14=Drive-In Movies And Dashboard Lights
TTITLE15=There's A Light Beyond These Woods
TTITLE16=Outbound Plane
TTITLE17=It's A Hard Life Wherever You Go
EXTD=
EXTT0=
EXTT1=
EXTT2=
EXTT3=
EXTT4=
EXTT5=
EXTT6=
EXTT7=
EXTT8=
EXTT9=
EXTT10=
EXTT11=
EXTT12=
EXTT13=
EXTT14=
EXTT15=
EXTT16=
EXTT17=
PLAYORDER=
